<svg width="432" height="149" viewBox="0 0 432 149" fill="none" xmlns="http://www.w3.org/2000/svg">
<path d="M303.671 22.5601C300.832 26.5944 296.116 31.6726 289.525 37.7945C282.824 43.8397 278.477 48.2798 276.481 51.1147C274.563 53.8406 273.014 57.3157 271.834 61.5399C270.655 65.7642 270.027 67.9308 269.95 68.0398C269.259 69.0211 268.314 69.0897 267.115 68.2456L264.007 66.0585C262.699 65.1376 262.337 63.3344 262.923 60.6488C264.127 55.4634 266.11 50.908 268.873 46.9827C271.636 43.0575 276.329 38.1267 282.953 32.1906C289.576 26.2544 293.924 21.8143 295.996 18.8703C298.068 15.9264 299.655 12.3968 300.758 8.28161C301.861 4.16641 302.489 1.99977 302.643 1.7817C303.333 0.800385 304.278 0.7318 305.478 1.57595L308.585 3.76305C309.785 4.60719 310.13 6.31754 309.621 8.8941C308.57 13.8614 306.587 18.4168 303.671 22.5601Z" fill="#30976A"/>
<path d="M270.838 95.7827C272.718 88.6838 271.702 81.1286 268.012 74.7792C264.322 68.4299 258.26 63.8064 251.161 61.926L240.455 59.09C236.94 58.159 233.276 57.9293 229.672 58.4143C226.068 58.8992 222.595 60.0893 219.451 61.9164C216.307 63.7435 213.554 66.172 211.349 69.0632C209.143 71.9544 207.529 75.2516 206.598 78.7667L200.926 100.18L265.166 117.196L270.838 95.7827Z" fill="#30976A"/>
<path d="M225.797 146.87L228.473 147.579C235.572 149.46 243.128 148.443 249.477 144.753C255.826 141.063 260.45 135.002 262.33 127.903L263.748 122.549L234.305 114.75L225.797 146.87Z" fill="#30976A"/>
<path d="M217.767 144.743L220.443 145.452L228.951 113.332L199.508 105.533L198.09 110.887C197.159 114.402 196.929 118.066 197.414 121.67C197.899 125.273 199.089 128.746 200.916 131.89C202.744 135.034 205.172 137.787 208.063 139.993C210.954 142.198 214.252 143.812 217.767 144.743Z" fill="#30976A"/>
<path d="M30.32 146H35.25C36.3833 146 36.95 145.32 36.95 143.96V45.87C36.95 44.85 37.5167 44.34 38.65 44.34H63.3C64.66 44.34 65.34 43.7167 65.34 42.47V38.56C65.34 37.3133 64.66 36.69 63.3 36.69H2.1C0.739998 36.69 0.0599976 37.3133 0.0599976 38.56V42.47C0.0599976 43.7167 0.739998 44.34 2.1 44.34H26.75C27.8833 44.34 28.45 44.85 28.45 45.87V143.96C28.45 145.32 29.0733 146 30.32 146Z" fill="#30976A"/>
<path d="M81.9867 28.7V45.02C81.9867 46.38 82.5534 47.06 83.6867 47.06H88.7867C89.9201 47.06 90.4867 46.38 90.4867 45.02V28.7C90.4867 27.4533 89.9201 26.83 88.7867 26.83H83.6867C82.5534 26.83 81.9867 27.4533 81.9867 28.7Z" fill="#30976A"/>
<path d="M81.9867 61.34V143.96C81.9867 145.32 82.5534 146 83.6867 146H88.7867C89.9201 146 90.4867 145.32 90.4867 143.96V61.34C90.4867 59.98 89.8634 59.3 88.6167 59.3H83.6867C82.5534 59.3 81.9867 59.98 81.9867 61.34Z" fill="#30976A"/>
<path d="M118.53 146H123.46C124.707 146 125.33 145.32 125.33 143.96V83.61C125.33 78.2833 126.86 74.2033 129.92 71.37C133.093 68.4233 137.4 66.95 142.84 66.95H153.89C159.103 66.95 163.07 68.4233 165.79 71.37C168.51 74.3167 169.87 78.4533 169.87 83.78V143.96C169.87 145.32 170.493 146 171.74 146H176.67C177.803 146 178.37 145.32 178.37 143.96V83.44C178.37 75.96 176.273 70.0667 172.08 65.76C167.887 61.4533 162.163 59.3 154.91 59.3H143.69C135.077 59.3 129.183 62.2467 126.01 68.14H125.33V61.34C125.33 59.98 124.707 59.3 123.46 59.3H118.53C117.397 59.3 116.83 59.98 116.83 61.34V143.96C116.83 145.32 117.397 146 118.53 146Z" fill="#30976A"/>
<path fill-rule="evenodd" clip-rule="evenodd" d="M315.737 146H351.267C352.513 146 353.137 145.377 353.137 144.13V140.22C353.137 138.973 352.513 138.35 351.267 138.35H316.417C311.203 138.35 307.237 136.933 304.517 134.1C301.797 131.153 300.437 127.017 300.437 121.69V108.6C300.437 107.58 300.947 107.07 301.967 107.07H352.287C353.647 107.07 354.327 106.39 354.327 105.03V83.44C354.327 75.96 352.173 70.0667 347.867 65.76C343.56 61.4533 337.723 59.3 330.357 59.3H315.737C308.37 59.3 302.533 61.4533 298.227 65.76C294.033 70.0667 291.937 75.96 291.937 83.44V121.86C291.937 129.34 294.033 135.233 298.227 139.54C302.533 143.847 308.37 146 315.737 146ZM344.297 100.27H301.967C300.947 100.27 300.437 99.76 300.437 98.74V83.61C300.437 78.2833 301.797 74.2033 304.517 71.37C307.237 68.4233 311.203 66.95 316.417 66.95H329.847C335.06 66.95 339.027 68.4233 341.747 71.37C344.467 74.2033 345.827 78.2833 345.827 83.61V98.74C345.827 99.76 345.317 100.27 344.297 100.27Z" fill="#30976A"/>
<path d="M374.589 59.3H369.319C368.072 59.3 367.619 59.98 367.959 61.34L393.629 143.96C394.082 145.32 394.932 146 396.179 146H403.659C404.905 146 405.699 145.32 406.039 143.96L431.709 61.34C432.162 59.98 431.765 59.3 430.519 59.3H425.079C424.059 59.3 423.322 59.98 422.869 61.34L400.259 136.48H399.579L376.799 61.34C376.459 59.98 375.722 59.3 374.589 59.3Z" fill="#30976A"/>
</svg>
